<svg width="50" height="50" viewBox="0 0 50 50" fill="none" xmlns="http://www.w3.org/2000/svg">
<path d="M45.39 25.9841C54.6897 18.3093 47.0571 9.10721 46.9733 9.00762L46.6411 8.61859L46.0005 8.69929C43.636 8.99727 41.9091 10.0609 40.8914 10.8762C40.8016 10.5699 40.7178 10.2699 40.616 9.95742C39.4607 6.47688 41.7534 3.93377 41.7743 3.91099L42.6453 2.97775L41.0409 2.91567C34.5639 2.65287 30.9421 5.09877 29.4096 6.49553C28.9337 5.70299 28.3411 4.96427 27.6198 4.28965C23.7048 0.631172 17.6351 0.111764 17.3807 0.0910514L16.2164 0L16.3451 0.804937C16.8091 3.68539 16.4379 6.17489 14.9923 10.0611C13.7412 9.47749 11.0564 8.09318 10.1376 6.54534L9.56289 5.57486L8.56917 6.3674C8.39856 6.50397 4.58839 9.60378 4.71712 14.1355C3.60371 14.0631 2.42143 14.092 1.19125 14.2762L0 14.4562L0.559704 15.2053C0.586642 15.2384 3.15169 18.7066 3.31934 21.9574C3.39716 23.5217 4.31306 24.9082 5.47137 26.0049C4.36992 26.456 3.80421 26.9816 3.80421 27.5734C3.80421 27.6686 4.82781 34.6109 4.82781 34.6109C4.82781 34.6109 6.49796 35.2359 7.38992 35.4407L10.6973 48.4977C10.7182 49.0233 11.248 50 25.4532 50C39.679 50 40.1908 49.0212 40.2092 48.4957L43.3878 35.4694C43.9805 35.339 45.3992 34.9065 45.3992 34.9065C45.3992 34.9065 47.1023 27.701 47.1023 27.5728C47.1023 26.9666 46.5336 26.443 45.3902 25.9836L45.39 25.9841ZM45.1805 27.6665C44.6477 28.4176 37.9611 29.9427 25.4501 29.9427C12.6281 29.9427 5.92055 28.3411 5.68992 27.6127C5.68992 27.6127 5.76475 27.1223 6.69858 27.0064C7.05176 27.7638 11.7449 29.5558 25.4504 29.4854C41.4247 29.4047 44.082 27.3851 44.0851 26.9671C45.0758 26.992 45.1805 27.6665 45.1805 27.6665ZM41.4481 12.5234C41.466 12.5027 43.0344 10.6569 45.6832 10.0816C47.105 12.064 52.3009 20.6308 41.1906 27.0624C40.5262 27.2983 38.7662 27.5983 35.8959 27.8301C41.2505 24.6309 43.0283 19.5635 41.3253 12.4761L41.4481 12.5234ZM30.1938 8.01441C30.2237 7.9751 32.9354 4.43042 39.4812 4.20072C38.7688 5.39263 37.9008 7.56541 38.7898 10.245C41.8008 19.329 39.7146 24.9908 32.235 28.0511C31.7172 28.0739 31.1814 28.0966 30.6217 28.1132C30.1966 27.3145 28.2392 23.0517 30.2236 15.6294C30.9988 12.7303 30.9599 10.1789 30.1338 7.99163L30.1938 8.01441ZM18.3203 1.53731C20.1192 1.85597 23.642 2.74574 26.1174 5.05715C28.7903 7.55476 29.5535 11.0331 28.3862 15.3955C26.5334 22.3277 27.9761 26.6403 28.6735 28.1633C27.6559 28.1819 26.5873 28.1943 25.45 28.1943C23.8816 28.1943 22.4419 28.1736 21.101 28.1364C19.6524 27.4928 11.1577 23.3729 14.193 16.5918C17.5752 9.03242 18.7483 5.53312 18.3203 1.53731ZM9.16161 8.00382C10.8018 9.71307 13.6662 11.0229 14.4803 11.3747C13.9146 12.788 13.2322 14.371 12.4091 16.2106C12.3882 16.2562 12.3732 16.3017 12.3552 16.3472C11.2598 15.7574 9.21846 14.8263 6.61451 14.3689C6.43194 11.4698 8.10208 9.15245 9.16161 8.00382ZM2.76539 15.4159C7.50641 15.1366 11.3525 17.4231 11.8819 17.7542C10.7147 22.6915 14.9618 26.23 17.8561 28.0137C13.4593 27.7881 10.7805 27.397 9.81689 27.097L9.82587 27.0866C8.09887 26.4037 5.30935 24.3945 5.18062 21.9093C5.05192 19.3247 3.58548 16.7011 2.76539 15.4159ZM38.4125 48.0902C37.2153 48.3675 32.4324 48.7068 25.4526 48.7068C18.4667 48.7068 13.6841 48.3654 12.4896 48.0902L9.38573 35.8214C13.3426 36.4691 19.1429 36.8602 25.4527 36.8602C31.6723 36.8602 37.4373 36.4774 41.3994 35.8421L38.4125 48.0902ZM25.4495 35.5687C18.8528 35.5687 9.25072 34.9231 6.58732 33.8326L5.93184 29.2967C10.17 30.7908 19.7415 31.2357 25.4469 31.2357C31.0708 31.2357 40.4572 30.8053 44.7818 29.3609L43.7043 34.0168C40.394 34.9521 33.1922 35.5687 25.4495 35.5687Z" fill="black"/>
</svg>
