<svg width="327" height="204" viewBox="0 0 327 204" fill="none" xmlns="http://www.w3.org/2000/svg">
<path d="M163.22 177.415C180.29 162.355 235.77 103.005 163.22 19.1049C90.6698 103.005 146.15 162.355 163.22 177.415ZM163.22 195.525C144.34 202.625 41.7898 234.155 0.339795 99.7049C-0.900205 95.6849 1.3598 91.4049 5.3898 90.1749C5.6098 90.1049 5.8298 90.0449 6.0498 90.0049C17.9798 87.2849 28.9998 85.6049 39.1898 84.8349C46.6198 84.2649 53.6498 84.1649 60.2998 84.4849C59.6198 68.6749 61.2398 50.6349 65.9498 30.0349C66.8798 25.9249 70.9498 23.3449 75.0598 24.2649C75.2498 24.3049 75.4398 24.3549 75.6298 24.4149C87.2698 28.0049 97.6898 32.0849 107 36.5549C113.76 39.7949 119.91 43.2249 125.49 46.8049C132.78 32.8149 143.16 18.0549 157.46 2.61493L157.63 2.43493L158.02 2.04493C161.11 -0.825068 165.94 -0.655069 168.81 2.43493C183.2 17.9349 193.64 32.7649 200.95 46.8049C206.53 43.2349 212.67 39.8049 219.43 36.5549C228.74 32.0849 239.16 28.0049 250.8 24.4149C250.99 24.3549 251.18 24.3049 251.37 24.2649C255.48 23.3349 259.56 25.9249 260.48 30.0349C265.18 50.6349 266.81 68.6749 266.13 84.4849C272.78 84.1749 279.81 84.2649 287.24 84.8349C297.43 85.6149 308.45 87.2849 320.38 90.0049C320.6 90.0449 320.82 90.1049 321.04 90.1749C325.07 91.4149 327.33 95.6849 326.09 99.7049C284.61 234.235 182 202.605 163.21 195.525H163.22ZM61.7798 99.8549C55.1298 99.4349 47.9798 99.4849 40.3298 100.065C33.1598 100.615 25.5698 101.625 17.5498 103.165C46.0098 185.145 100.64 191.755 133.42 187.275C106.68 176.965 69.8898 153.235 61.7898 99.8549H61.7798ZM119.09 60.8349C113.51 57.1149 107.31 53.5849 100.44 50.2849C93.9898 47.1949 86.8998 44.2849 79.1298 41.5849C62.7998 126.815 106.8 159.855 137.42 172.365C119.42 150.055 99.4198 111.115 119.09 60.8249V60.8349ZM193.04 187.275C225.82 191.755 280.45 185.145 308.91 103.165C300.89 101.625 293.3 100.615 286.13 100.065C278.48 99.4749 271.34 99.4349 264.69 99.8549C256.59 153.235 219.79 176.965 193.05 187.275H193.04ZM189.04 172.365C219.66 159.855 263.66 126.815 247.32 41.5849C239.55 44.2749 232.46 47.1849 226.01 50.2849C219.14 53.5849 212.94 57.1149 207.36 60.8249C227.03 111.105 207.03 150.055 189.03 172.365H189.04Z" fill="black"/>
</svg>
