<svg width="8" height="13" viewBox="0 0 8 13" fill="none" xmlns="http://www.w3.org/2000/svg">
<path fill-rule="evenodd" clip-rule="evenodd" d="M7.2446 0.683102C6.79538 1.55139 6.55124 2.77164 6.30007 4.02645C5.65632 7.24301 4.96957 10.6722 0.870767 9.95749C0.686787 10.603 0.518817 11.3395 0.377017 12.1836C0.310611 12.5795 -0.0581427 12.4153 0.0078773 12.02C0.163347 11.095 0.348897 10.2922 0.552017 9.59263C0.316857 8.18771 0.263737 6.94383 0.358657 5.85719C0.610607 2.97096 1.89846 1.21845 3.55516 0.456437C4.63096 -0.0381884 5.87706 -0.124119 7.12816 0.166167C7.28128 0.201815 7.34342 0.502311 7.2446 0.683102ZM0.821597 8.75042C1.54816 6.6847 2.4181 5.69421 2.9747 5.06078C3.17275 4.8348 3.37001 4.49168 3.51493 4.80105C3.83524 5.48536 2.24583 5.72917 1.05403 9.35831C4.71813 9.91212 5.34663 6.77697 5.93563 3.83354C6.16024 2.71062 6.37977 1.61382 6.75008 0.718171C3.38208 0.117881 0.00359716 2.37515 0.821597 8.75042Z" fill="black"/>
</svg>
