<svg width="50" height="25" viewBox="0 0 50 25" fill="none" xmlns="http://www.w3.org/2000/svg">
<path d="M25.0008 21.7614C27.6154 19.9141 36.1134 12.6344 25.0008 2.34337C13.8881 12.6344 22.3861 19.9141 25.0008 21.7614ZM25.0008 23.9827C22.1089 24.8536 6.40104 28.721 0.0520473 12.2296C-0.137886 11.7365 0.208283 11.2116 0.825568 11.0607C0.859266 11.0521 0.892964 11.0447 0.926662 11.0398C2.75401 10.7062 4.44197 10.5001 6.00279 10.4057C7.14087 10.3358 8.21767 10.3235 9.23626 10.3628C9.13211 8.42353 9.38025 6.21078 10.1017 3.68403C10.2441 3.1799 10.8676 2.86344 11.4971 2.97629C11.5262 2.9812 11.5553 2.98733 11.5844 2.99469C13.3673 3.43503 14.9634 3.93548 16.3894 4.48376C17.4249 4.88117 18.3669 5.30189 19.2216 5.741C20.3382 4.02502 21.9281 2.21458 24.1185 0.320742L24.1445 0.298664L24.2043 0.250827C24.6776 -0.101201 25.4174 -0.0803495 25.857 0.298664C28.0611 2.19986 29.6603 4.01888 30.78 5.741C31.6347 5.30311 32.5751 4.8824 33.6106 4.48376C35.0366 3.93548 36.6327 3.43503 38.4156 2.99469C38.4447 2.98733 38.4738 2.9812 38.5029 2.97629C39.1325 2.86222 39.7574 3.1799 39.8983 3.68403C40.6182 6.21078 40.8679 8.42353 40.7637 10.3628C41.7823 10.3247 42.8591 10.3358 43.9972 10.4057C45.558 10.5014 47.246 10.7062 49.0733 11.0398C49.107 11.0447 49.1407 11.0521 49.1744 11.0607C49.7917 11.2128 50.1379 11.7365 49.948 12.2296C43.5944 28.7308 27.8773 24.8511 24.9992 23.9827H25.0008ZM9.46296 12.248C8.44436 12.1965 7.34918 12.2026 6.17741 12.2738C5.07917 12.3412 3.91659 12.4651 2.68814 12.654C7.04743 22.7095 15.4152 23.5203 20.4362 22.9708C16.3404 21.7062 10.7052 18.7955 9.46449 12.248H9.46296ZM18.2413 7.46189C17.3866 7.00561 16.4369 6.57262 15.3846 6.16785C14.3966 5.78884 13.3106 5.4319 12.1205 5.10073C9.6192 15.5549 16.3588 19.6075 21.0489 21.1419C18.2918 18.4054 15.2284 13.6291 18.2413 7.46067V7.46189ZM29.5684 22.9708C34.5894 23.5203 42.9572 22.7095 47.3165 12.654C46.088 12.4651 44.9254 12.3412 43.8272 12.2738C42.6554 12.2014 41.5618 12.1965 40.5432 12.248C39.3025 18.7955 33.6657 21.7062 29.5699 22.9708H29.5684ZM28.9557 21.1419C33.6458 19.6075 40.3854 15.5549 37.8826 5.10073C36.6924 5.43068 35.6064 5.78761 34.6185 6.16785C33.5662 6.57262 32.6165 7.00561 31.7618 7.46067C34.7747 13.6279 31.7112 18.4054 28.9541 21.1419H28.9557Z" fill="black"/>
</svg>
