<svg width="83" height="75" viewBox="0 0 83 75" fill="none" xmlns="http://www.w3.org/2000/svg">
<path d="M80.0192 48.9351C77.4098 45.5445 73.2184 42.8335 67.8982 41.0953C65.6482 40.357 63.4294 39.7867 61.2068 39.3648C61.4958 39.3062 61.7771 39.2554 62.0662 39.1929C65.4373 38.4546 68.4256 36.7515 70.7381 34.271C70.8474 34.1499 70.9568 34.0327 71.0662 33.9116C72.3865 32.3804 73.0662 30.603 72.9959 28.8999C72.9256 27.2905 72.1951 25.6811 70.824 24.1304C68.824 21.8609 65.8748 20.1304 62.3045 19.1187C59.6131 18.357 56.8436 18.0601 54.1326 17.8296C55.3709 17.6187 56.6131 17.3999 57.8435 17.1812C59.6326 16.8609 61.1521 15.7007 61.9138 14.0796C62.6247 12.5601 62.5622 10.8608 61.7341 9.41938C59.7927 6.02878 56.0544 3.20057 51.4961 1.66937C46.207 -0.100126 40.5471 -0.119726 35.7341 0.0912741C33.7224 0.181117 31.3943 0.329554 29.2029 1.00143C26.6717 1.77096 24.6638 3.17333 23.5427 4.93113C21.1716 8.68113 23.1638 13.4506 26.4529 15.8921C27.2341 16.4703 28.1131 16.9624 29.0623 17.3921C28.5115 17.4507 27.9607 17.5132 27.4139 17.5914C22.7342 18.2203 17.453 19.3297 13.7229 22.8023C10.594 25.7125 8.63309 31.1031 11.1448 35.3803C12.2737 37.3022 14.2659 38.8608 16.7464 39.7709C18.7972 40.5209 20.9652 40.7826 22.8167 40.9311C23.3675 40.9818 23.9456 41.0014 24.5081 41.0326C22.4964 41.5834 20.4886 42.2435 18.4573 43.0209C13.4182 44.9623 7.12929 49.0209 3.81629 52.4701C1.99599 54.3607 -0.144614 57.3803 0.00768565 61.0013C0.179566 64.931 3.17959 68.7201 7.83579 70.8802C11.6444 72.6497 15.7967 73.2005 20.4378 73.681C27.4886 74.4193 34.7078 75.0013 41.8868 75.0013C51.297 75.0013 60.6368 74.013 69.4458 71.0716C75.7661 68.9622 79.7858 66.1732 81.7268 62.5325C83.887 58.4348 83.2262 53.1073 80.0192 48.9351ZM26.0662 6.53707C26.7966 5.37687 28.2146 4.43547 30.0545 3.87687C31.9139 3.31828 33.9334 3.17765 35.8436 3.09562C37.0155 3.04484 38.242 3.00578 39.492 3.00578C43.0936 3.00578 46.9412 3.32609 50.523 4.52528C54.4019 5.82608 57.5347 8.15418 59.1128 10.9237C59.5737 11.7245 59.3511 12.4549 59.1714 12.8221C58.8315 13.5604 58.1206 14.0838 57.2495 14.244C50.9683 15.3651 44.4795 16.5252 38.0385 16.2323C33.6674 16.0409 30.4604 15.1425 28.2299 13.4823C26.0385 11.8573 24.6287 8.81437 26.0662 6.53707ZM17.7693 36.9551C15.9412 36.2832 14.4998 35.1856 13.7302 33.8653C12.07 31.045 13.4685 27.1465 15.7693 25.0059C18.8904 22.1075 23.6091 21.1348 27.8203 20.5762C31.582 20.0645 35.3515 19.8145 39.1013 19.8145C42.2615 19.8145 45.4099 19.9941 48.5232 20.3535C49.8435 20.502 51.1951 20.6152 52.492 20.7129C55.5037 20.9512 58.6209 21.2012 61.492 22.0137C64.5037 22.8653 66.9529 24.2832 68.5818 26.1231C69.2029 26.8223 69.9529 27.9043 70.0037 29.0333C70.0545 30.295 69.2732 31.4044 68.7928 31.963C68.7147 32.0646 68.6209 32.1544 68.5428 32.2442C66.6639 34.2754 64.203 35.6661 61.4334 36.2754C55.7537 37.5254 49.6954 37.7559 43.8314 37.9863C42.3509 38.0449 40.8705 38.1074 39.4095 38.1778C33.7376 38.459 28.2495 38.3887 23.0695 37.959C21.3976 37.8067 19.4763 37.5762 17.7693 36.9551ZM79.0583 61.1271C77.4997 64.0568 74.0388 66.3771 68.4803 68.2287C53.4923 73.2287 36.6713 72.3693 20.7303 70.7092C16.3709 70.2482 12.4803 69.7482 9.08228 68.1701C5.50418 66.5099 3.10178 63.6389 2.99248 60.881C2.91435 58.881 3.96123 56.631 5.96128 54.5607C8.96128 51.4396 14.9222 47.6115 19.5203 45.8302C28.532 42.3614 37.2583 41.42 47.7503 41.42C49.4105 41.42 51.1214 41.4395 52.8792 41.4786C57.6097 41.5879 62.219 42.4004 66.9492 43.9474C70.2578 45.0255 74.8008 47.0958 77.6292 50.7677C80.1292 53.9943 80.6872 58.065 79.0583 61.1271ZM51.2493 49.6861C51.2102 50.5142 50.5383 51.1549 49.6712 51.108C40.1712 50.5963 30.3702 52.2291 22.0622 55.6978C21.8708 55.7759 21.6833 55.8189 21.4841 55.8189C20.8942 55.8189 20.3435 55.4673 20.1052 54.897C19.7848 54.1353 20.1442 53.2564 20.9137 52.9361C29.6246 49.2955 39.9137 47.5845 49.8357 48.1158C50.66 48.147 51.2961 48.858 51.2493 49.6861Z" fill="black"/>
</svg>
