<svg width="50" height="50" viewBox="0 0 50 50" fill="none" xmlns="http://www.w3.org/2000/svg">
<path fill-rule="evenodd" clip-rule="evenodd" d="M49.6727 2.75203C46.5926 6.2501 44.9186 11.1662 43.1965 16.2215C38.7826 29.1801 34.0739 42.9955 5.97043 40.116C4.70897 42.7164 3.55728 45.6837 2.58502 49.0842C2.12971 50.6794 -0.398656 50.0177 0.0540108 48.4251C1.11999 44.6988 2.39222 41.4646 3.78491 38.6461C2.17254 32.986 1.80832 27.9748 2.45914 23.597C4.18664 11.9692 13.0168 4.90881 24.376 1.83886C31.7522 -0.153851 40.2961 -0.500041 48.8743 0.669441C49.9242 0.813058 50.3502 2.02367 49.6727 2.75203ZM5.63329 35.253C10.615 26.9308 16.5797 22.9404 20.3961 20.3885C21.754 19.4781 23.1065 18.0957 24.1001 19.3421C26.2964 22.099 15.3985 23.0812 7.22695 37.702C32.3499 39.9332 36.6592 27.3026 40.6977 15.4443C42.2377 10.9203 43.743 6.50162 46.282 2.89331C23.1893 0.47491 0.024664 9.56881 5.63329 35.253Z" fill="black"/>
</svg>
