<svg width="50" height="50" viewBox="0 0 50 50" fill="none" xmlns="http://www.w3.org/2000/svg">
<path d="M48.2139 32.6228C46.6417 30.3625 44.1162 28.5551 40.9106 27.3964C39.555 26.9042 38.2181 26.524 36.8789 26.2427C37.053 26.2037 37.2225 26.1698 37.3967 26.1281C39.4279 25.636 41.2284 24.5006 42.6218 22.8469C42.6877 22.7662 42.7536 22.6881 42.8195 22.6073C43.615 21.5866 44.0245 20.4017 43.9822 19.2663C43.9398 18.1934 43.4997 17.1204 42.6735 16.0867C41.4685 14.5737 39.6915 13.42 37.5403 12.7456C35.9186 12.2378 34.2499 12.0399 32.6165 11.8862C33.3626 11.7456 34.111 11.5997 34.8524 11.4539C35.9304 11.2404 36.8459 10.4669 37.3049 9.38622C37.7332 8.37324 37.6956 7.24039 37.1966 6.27947C36.0269 4.01911 33.7744 2.13368 31.0279 1.1129C27.8411 -0.0667493 24.4308 -0.0798159 21.5308 0.0608483C20.3187 0.120743 18.916 0.219699 17.5956 0.667611C16.0705 1.18062 14.8607 2.11552 14.1852 3.28737C12.7565 5.78732 13.9569 8.96693 15.9386 10.5946C16.4094 10.98 16.939 11.3081 17.5109 11.5946C17.179 11.6336 16.8471 11.6753 16.5177 11.7274C13.698 12.1466 10.5159 12.8862 8.26844 15.2012C6.38319 17.1413 5.20169 20.735 6.71506 23.5864C7.39526 24.8677 8.59561 25.9067 10.0902 26.5134C11.3259 27.0134 12.6321 27.1879 13.7477 27.2869C14.0796 27.3207 14.4279 27.3338 14.7668 27.3546C13.5547 27.7218 12.345 28.1618 11.1211 28.6801C8.08485 29.9744 4.2956 32.68 2.29942 34.9795C1.20264 36.2398 -0.0871344 38.2529 0.00463083 40.6668C0.108194 43.2866 1.91579 45.8126 4.72129 47.2526C7.01608 48.4323 9.51797 48.7995 12.3144 49.1198C16.5627 49.612 20.9125 50 25.238 50C30.9079 50 36.5354 49.3412 41.8431 47.3802C45.6513 45.974 48.0733 44.1147 49.2428 41.6876C50.5444 38.9559 50.1462 35.4042 48.2139 32.6228ZM15.7056 4.35797C16.1458 3.58452 17.0001 2.95693 18.1087 2.58454C19.229 2.21215 20.4459 2.1184 21.5968 2.06371C22.3029 2.02986 23.0419 2.00382 23.7951 2.00382C25.9651 2.00382 28.2834 2.21736 30.4416 3.0168C32.7787 3.88399 34.6663 5.43603 35.6172 7.28233C35.8949 7.81617 35.7608 8.30311 35.6525 8.5479C35.4477 9.04008 35.0194 9.38902 34.4945 9.49582C30.7099 10.2432 26.8002 11.0166 22.9193 10.8213C20.2856 10.6937 18.3533 10.0948 17.0093 8.98803C15.6889 7.90471 14.8395 5.87615 15.7056 4.35797ZM10.7065 24.6363C9.60503 24.1884 8.73654 23.4566 8.27283 22.5765C7.27252 20.6963 8.11514 18.0973 9.50145 16.6703C11.382 14.7381 14.2252 14.0896 16.7625 13.7172C19.0291 13.3761 21.3003 13.2094 23.5597 13.2094C25.4638 13.2094 27.3608 13.3292 29.2366 13.5688C30.0322 13.6677 30.8465 13.7432 31.628 13.8084C33.4426 13.9672 35.3208 14.1339 37.0507 14.6755C38.8654 15.2432 40.3411 16.1885 41.3225 17.4151C41.6968 17.8812 42.1487 18.6025 42.1793 19.3552C42.2099 20.1963 41.7391 20.9359 41.4497 21.3083C41.4026 21.376 41.3461 21.4359 41.299 21.4958C40.1669 22.8499 38.6842 23.777 37.0154 24.1832C33.5932 25.0165 29.9429 25.1702 26.4097 25.3238C25.5176 25.3628 24.6257 25.4045 23.7454 25.4514C20.3279 25.6389 17.0211 25.592 13.9 25.3056C12.8927 25.204 11.735 25.0503 10.7065 24.6363ZM47.6349 40.7507C46.6958 42.7038 44.6105 44.2506 41.2614 45.485C32.2307 48.8183 22.0955 48.2453 12.4906 47.1386C9.86393 46.8313 7.51973 46.498 5.47234 45.4459C3.31643 44.3391 1.86891 42.4252 1.80305 40.5866C1.75598 39.2533 2.38675 37.7533 3.59184 36.3731C5.39943 34.2925 8.99105 31.7404 11.7615 30.5529C17.1914 28.2404 22.4492 27.6128 28.7709 27.6128C29.7713 27.6128 30.8021 27.6259 31.8613 27.6519C34.7115 27.7248 37.4888 28.2665 40.3388 29.2977C42.3324 30.0165 45.0697 31.3966 46.7739 33.8445C48.2802 35.9955 48.6164 38.7093 47.6349 40.7507ZM30.8792 33.1235C30.8557 33.6755 30.4508 34.1027 29.9283 34.0714C24.2043 33.7302 18.2989 34.8188 13.2931 37.1312C13.1778 37.1833 13.0648 37.2119 12.9448 37.2119C12.5894 37.2119 12.2575 36.9776 12.1139 36.5973C11.921 36.0895 12.1375 35.5036 12.6011 35.2901C17.8497 32.8631 24.0492 31.7224 30.0275 32.0766C30.5241 32.0975 30.9074 32.5714 30.8792 33.1235Z" fill="black"/>
</svg>
