<svg width="66" height="95" viewBox="0 0 66 95" fill="none" xmlns="http://www.w3.org/2000/svg">
<path d="M59.2383 49.0509C71.3753 34.5629 61.4141 17.1919 61.3047 17.0039L60.8712 16.2695L60.0352 16.4219C56.9493 16.9844 54.6954 18.9922 53.3672 20.5313C53.25 19.9531 53.1407 19.3868 53.0078 18.7969C51.5 12.2266 54.4922 7.42587 54.5195 7.38287L55.6562 5.62117L53.5624 5.50398C45.1093 5.00789 40.3824 9.62508 38.3824 12.2618C37.7613 10.7657 36.9879 9.37118 36.0465 8.09768C30.9371 1.19148 23.0155 0.21098 22.6835 0.17188L21.164 0L21.332 1.5195C21.9375 6.957 21.4531 11.6565 19.5664 18.9925C17.9336 17.8909 14.4297 15.2777 13.2305 12.3558L12.4805 10.5238L11.1836 12.0199C10.9609 12.2777 5.9883 18.1293 6.1563 26.6839C4.7032 26.5472 3.1602 26.6019 1.5547 26.9495L0 27.2894L0.730469 28.7035C0.765625 28.766 4.11327 35.3129 4.33207 41.4495C4.43363 44.4026 5.62897 47.0198 7.14067 49.0901C5.70317 49.9416 4.96487 50.9339 4.96487 52.051C4.96487 52.2307 6.30077 65.336 6.30077 65.336C6.30077 65.336 8.48047 66.5157 9.64457 66.9024L13.961 91.5504C13.9883 92.5426 14.6797 94.3863 33.219 94.3863C51.785 94.3863 52.453 92.5386 52.477 91.5465L56.6254 66.9565C57.3988 66.7104 59.2504 65.894 59.2504 65.894C59.2504 65.894 61.4731 52.292 61.4731 52.05C61.4731 50.9055 60.7309 49.9172 59.2387 49.05L59.2383 49.0509ZM58.9649 52.2267C58.2696 53.6447 49.543 56.5236 33.2149 56.5236C16.4809 56.5236 7.7269 53.5002 7.4259 52.1252C7.4259 52.1252 7.52356 51.1994 8.7423 50.9807C9.20324 52.4104 15.3282 55.7932 33.2153 55.6604C54.0633 55.5081 57.5313 51.6956 57.5353 50.9065C58.8283 50.9534 58.9649 52.2267 58.9649 52.2267ZM54.0938 23.6407C54.1172 23.6016 56.1641 20.1173 59.6211 19.0313C61.4766 22.7735 68.2578 38.9453 53.7578 51.0863C52.8906 51.5316 50.5937 52.098 46.8476 52.5355C53.8359 46.4964 56.1562 36.9305 53.9335 23.5515L54.0938 23.6407ZM39.4058 15.129C39.4449 15.0548 42.9839 8.36341 51.5268 7.92981C50.5971 10.1798 49.4643 14.2814 50.6245 19.3398C54.5542 36.4878 51.8315 47.1758 42.0698 52.9528C41.394 52.9958 40.6948 53.0387 39.9643 53.07C39.4096 51.5622 36.8549 43.5153 39.4447 29.504C40.4564 24.0313 40.4057 19.215 39.3275 15.086L39.4058 15.129ZM23.9098 2.90201C26.2575 3.50357 30.8551 5.18321 34.0858 9.54651C37.5741 14.2613 38.5702 20.8275 37.0467 29.0625C34.6287 42.1485 36.5115 50.2895 37.4217 53.1645C36.0936 53.1997 34.699 53.2231 33.2147 53.2231C31.1678 53.2231 29.2889 53.184 27.5389 53.1137C25.6483 51.8989 14.5619 44.1215 18.5233 31.3207C22.9374 17.0507 24.4684 10.445 23.9098 2.90201ZM11.9568 15.109C14.0974 18.3356 17.8357 20.8082 18.8982 21.4723C18.1599 24.1403 17.2693 27.1285 16.1951 30.6012C16.1678 30.6871 16.1482 30.7731 16.1248 30.859C14.6951 29.7457 12.031 27.9879 8.63259 27.1246C8.39431 21.6519 10.574 17.2773 11.9568 15.109ZM3.6091 29.101C9.7966 28.5737 14.8161 32.8901 15.5071 33.5151C13.9837 42.8354 19.5266 49.5151 23.304 52.8821C17.5657 52.4563 14.0696 51.718 12.812 51.1516L12.8237 51.1321C10.5698 49.843 6.92922 46.0501 6.76122 41.3587C6.59325 36.4798 4.6794 31.527 3.6091 29.101ZM50.1321 90.781C48.5696 91.3045 42.3274 91.9451 33.2181 91.9451C24.1009 91.9451 17.8591 91.3006 16.3001 90.781L12.2493 67.621C17.4134 68.8437 24.9833 69.5819 33.2183 69.5819C41.3355 69.5819 48.8593 68.8593 54.0303 67.66L50.1321 90.781ZM33.2141 67.144C24.6047 67.144 12.0731 65.9252 8.5971 63.8667L7.74163 55.3042C13.2728 58.1245 25.7646 58.9644 33.2106 58.9644C40.5504 58.9644 52.8006 58.1519 58.4446 55.4253L57.0384 64.2144C52.7181 65.98 43.3191 67.144 33.2141 67.144Z" fill="black"/>
</svg>
