<svg width="50" height="50" viewBox="0 0 50 50" fill="none" xmlns="http://www.w3.org/2000/svg">
<path d="M30.6737 23.7694C33.4936 21.9139 35.3613 18.7327 35.3613 15.1119C35.3613 9.39899 30.7104 4.75061 25 4.75061C19.2871 4.75061 14.6388 9.40149 14.6388 15.1119C14.6388 18.73 16.5064 21.9187 19.3263 23.7694C13.4523 24.0257 8.75 28.8695 8.75 34.7994V34.8677C8.75 38.4932 11.6993 41.4427 15.325 41.4427H34.6756C38.3011 41.4427 41.2506 38.4935 41.2506 34.8677V34.7994C41.2506 28.8619 36.5503 24.0181 30.6737 23.7694ZM15.8888 15.1119C15.8888 10.0874 19.9757 6.00061 25 6.00061C30.0243 6.00061 34.1113 10.0875 34.1113 15.1119C34.1113 20.1363 30.0243 24.2231 25 24.2231C19.9757 24.2231 15.8888 20.1362 15.8888 15.1119ZM40 34.8675C40 37.8045 37.6123 40.1922 34.6753 40.1922H15.3247C12.3877 40.1922 10 37.8045 10 34.8675V34.7991C10 29.3939 14.3994 24.9923 19.8069 24.9923H21.8942C22.8757 25.2974 23.9182 25.4683 24.9997 25.4683C26.0813 25.4683 27.1237 25.2999 28.1052 24.9923H30.1926C35.5979 24.9923 39.9995 29.3917 39.9995 34.7991L40 34.8675Z" fill="black"/>
<path d="M25 0C11.2131 0 0 11.2131 0 25C0 38.7869 11.2131 50 25 50C38.7869 50 50 38.7869 50 25C50 11.2131 38.7869 0 25 0ZM25 48.75C11.9069 48.75 1.25 38.0931 1.25 25C1.25 11.9069 11.9069 1.25 25 1.25C38.0931 1.25 48.75 11.9069 48.75 25C48.75 38.0931 38.0931 48.75 25 48.75Z" fill="black"/>
</svg>
